<svg width="19" height="19" viewBox="0 0 19 19" fill="none" xmlns="http://www.w3.org/2000/svg">
<path d="M9.48301 0.681281C9.52056 0.681378 9.5581 0.681475 9.59678 0.681575C10.1721 0.683952 10.7334 0.702674 11.2967 0.830085C11.3362 0.83901 11.3757 0.847935 11.4164 0.85713C13.7415 1.40292 15.7546 2.81909 17.0247 4.84356C17.6104 5.80768 18.0198 6.86095 18.2147 7.97266C18.2226 8.01666 18.2306 8.06065 18.2387 8.10598C18.313 8.56169 18.3225 9.01109 18.3214 9.47193C18.3214 9.53125 18.3214 9.53125 18.3213 9.59178C18.3195 10.2346 18.2782 10.8499 18.1249 11.4766C18.1104 11.537 18.1104 11.537 18.0957 11.5986C17.5322 13.891 16.0588 15.8692 14.0452 17.0923C12.6807 17.8945 11.1827 18.3189 9.60217 18.3177C9.52963 18.318 9.45709 18.3183 9.38455 18.3187C9.18975 18.3194 8.99496 18.3197 8.80017 18.3197C8.67819 18.3198 8.55621 18.32 8.43424 18.3202C8.00799 18.321 7.58174 18.3214 7.15549 18.3213C6.75912 18.3213 6.36276 18.3222 5.96639 18.3237C5.62485 18.3248 5.28331 18.3253 4.94177 18.3253C4.7383 18.3252 4.53483 18.3255 4.33136 18.3264C4.14031 18.3273 3.94929 18.3273 3.75825 18.3267C3.68835 18.3266 3.61845 18.3268 3.54855 18.3273C2.80885 18.3327 2.80885 18.3327 2.51432 18.0632C2.34142 17.8742 2.27941 17.6897 2.25059 17.4399C2.29229 17.0229 2.51337 16.705 2.76439 16.3815C2.82021 16.3083 2.87596 16.235 2.93161 16.1616C2.9571 16.1281 2.98259 16.0946 3.00885 16.0601C3.0835 15.9586 3.14977 15.8544 3.2108 15.7441C3.19383 15.725 3.17686 15.7058 3.15938 15.6861C3.07128 15.586 2.98386 15.4854 2.89634 15.3848C2.83936 15.3203 2.83936 15.3203 2.78123 15.2546C2.47064 14.8995 2.20004 14.5288 1.95298 14.127C1.92493 14.0814 1.92493 14.0814 1.89631 14.0349C1.38286 13.1875 1.05046 12.2604 0.829937 11.2969C0.821946 11.2634 0.813955 11.2299 0.805721 11.1954C0.543957 10.0473 0.596696 8.66023 0.874859 7.52344C0.884486 7.48318 0.894113 7.44292 0.904032 7.40144C1.39736 5.39439 2.6231 3.49537 4.33384 2.31251C4.37982 2.28025 4.4258 2.248 4.47317 2.21477C5.97623 1.20496 7.67281 0.67286 9.48301 0.681281ZM5.90611 2.98634C5.87724 3.00238 5.84838 3.01842 5.81863 3.03494C5.42702 3.25419 5.0757 3.49718 4.73814 3.79493C4.69986 3.82828 4.66159 3.86164 4.62215 3.896C4.5096 3.99559 4.39899 4.09691 4.28892 4.19923C4.25678 4.22841 4.22464 4.2576 4.19153 4.28767C2.94296 5.47028 2.1311 7.29328 2.07474 9.0118C2.07118 9.17455 2.07043 9.33722 2.0709 9.50001C2.07096 9.53443 2.07101 9.56885 2.07107 9.60431C2.07633 10.839 2.3789 12.0137 2.98619 13.0938C3.00127 13.1214 3.01636 13.1491 3.0319 13.1776C3.53093 14.0888 4.26129 14.9037 5.09752 15.5195C5.02044 15.6914 4.91259 15.8394 4.80272 15.9912C4.78306 16.0186 4.76341 16.046 4.74316 16.0742C4.5747 16.3079 4.40165 16.538 4.2268 16.767C4.14976 16.8526 4.14976 16.8526 4.15416 16.9121C4.93598 16.9153 5.7178 16.9176 6.49962 16.9191C6.86273 16.9198 7.22583 16.9207 7.58894 16.9223C7.90582 16.9236 8.22271 16.9245 8.5396 16.9248C8.70702 16.925 8.87444 16.9254 9.04186 16.9264C9.90068 16.9313 10.7399 16.9207 11.5663 16.6566C11.603 16.6452 11.6397 16.6337 11.6775 16.6219C12.873 16.2378 13.8501 15.6168 14.7557 14.7559C14.7864 14.7281 14.8171 14.7003 14.8487 14.6716C16.0537 13.5423 16.8527 11.7309 16.9212 10.0839C16.9266 9.89396 16.927 9.70409 16.926 9.51405C16.9259 9.48053 16.9258 9.44702 16.9257 9.41249C16.9165 7.4186 16.1182 5.67727 14.7557 4.24415C14.7279 4.21346 14.7001 4.18277 14.6715 4.15115C13.5564 2.96138 11.7549 2.15112 10.1262 2.07796C9.92581 2.07153 9.72556 2.07048 9.52513 2.07105C9.48953 2.07111 9.45393 2.07116 9.41726 2.07122C8.17506 2.07634 6.99268 2.37234 5.90611 2.98634Z" fill="url(#paint0_linear_46_3)"/>
<path d="M13.2483 8.62964C13.4629 8.75543 13.6393 8.94891 13.7228 9.18554C13.7887 9.5148 13.7608 9.75564 13.5965 10.0503C13.4132 10.2807 13.218 10.4233 12.9218 10.4584C12.628 10.4623 12.386 10.453 12.1505 10.2637C11.8886 9.97877 11.8189 9.75355 11.824 9.36857C11.8455 9.12298 11.9213 8.95798 12.103 8.7909C12.435 8.53226 12.8506 8.44671 13.2483 8.62964Z" fill="url(#paint1_linear_46_3)"/>
<path d="M9.96897 8.62964C10.2091 8.77094 10.3553 8.96591 10.4435 9.23047C10.4826 9.56086 10.4686 9.85732 10.2638 10.1289C10.0894 10.3157 9.8974 10.4282 9.64241 10.4584C9.30768 10.4628 9.05374 10.4341 8.80258 10.1996C8.57215 9.94114 8.53611 9.7007 8.5427 9.36558C8.56993 9.10349 8.67263 8.91644 8.86838 8.74194C9.19289 8.51677 9.60175 8.46209 9.96897 8.62964Z" fill="url(#paint2_linear_46_3)"/>
<path d="M6.68676 8.62403C6.91781 8.7586 7.08029 8.97918 7.16405 9.23047C7.19375 9.55908 7.19857 9.86249 6.98436 10.1289C6.69937 10.391 6.47439 10.46 6.08944 10.4558C5.824 10.4319 5.63716 10.3282 5.46264 10.1289C5.24588 9.8229 5.23652 9.55789 5.27733 9.18555C5.37739 8.91516 5.56888 8.72062 5.82956 8.59806C6.10013 8.50591 6.42314 8.50923 6.68676 8.62403Z" fill="url(#paint3_linear_46_3)"/>
<defs>
<linearGradient id="paint0_linear_46_3" x1="18.3215" y1="9.50488" x2="0.635254" y2="9.50488" gradientUnits="userSpaceOnUse">
<stop stop-color="#C73967"/>
<stop offset="1" stop-color="#FF89AC"/>
</linearGradient>
<linearGradient id="paint1_linear_46_3" x1="13.7559" y1="9.49552" x2="11.8237" y2="9.49552" gradientUnits="userSpaceOnUse">
<stop stop-color="#C73967"/>
<stop offset="1" stop-color="#FF89AC"/>
</linearGradient>
<linearGradient id="paint2_linear_46_3" x1="10.4608" y1="9.49538" x2="8.54199" y2="9.49538" gradientUnits="userSpaceOnUse">
<stop stop-color="#C73967"/>
<stop offset="1" stop-color="#FF89AC"/>
</linearGradient>
<linearGradient id="paint3_linear_46_3" x1="7.17889" y1="9.49452" x2="5.2583" y2="9.49452" gradientUnits="userSpaceOnUse">
<stop stop-color="#C73967"/>
<stop offset="1" stop-color="#FF89AC"/>
</linearGradient>
</defs>
</svg>
