<svg width="69" height="61" viewBox="0 0 69 61" fill="none" xmlns="http://www.w3.org/2000/svg">
<path d="M63.5783 0.459161C64.1581 0.96991 64.7722 1.51687 64.8474 2.32089C64.8499 2.45881 64.8524 2.59672 64.8549 2.73882C64.8591 2.87507 64.8633 3.01132 64.8676 3.1517C64.7474 4.14184 64.1579 4.80296 63.4693 5.47656C63.3839 5.56208 63.2984 5.6476 63.2104 5.73572C62.9299 6.0158 62.6478 6.29413 62.3657 6.57246C62.17 6.76722 61.9744 6.9621 61.779 7.15708C61.266 7.66824 60.7515 8.17793 60.2367 8.68732C59.711 9.20806 59.1866 9.7302 58.6622 10.2522C57.6342 11.275 56.6047 12.2962 55.5742 13.3165C56.0966 13.8534 56.6504 14.2816 57.2662 14.7045C58.8748 15.8321 60.3782 17.0798 61.7343 18.504C61.8647 18.6344 61.9951 18.7648 62.1295 18.8991C62.2666 19.0362 62.4037 19.1733 62.5449 19.3145C62.6339 19.396 62.7229 19.4775 62.8147 19.5615C65.4197 22.0164 68.101 25.9072 68.2573 29.5876C68.3582 34.1389 66.2277 37.495 63.3554 40.875C63.257 40.9935 63.1586 41.112 63.0572 41.2341C62.5111 41.8792 61.9361 42.4446 61.2904 42.9894C61.0247 43.2194 60.7658 43.4574 60.5116 43.6999C58.5414 45.5777 56.3051 47.1311 53.9531 48.4942C53.7993 48.5858 53.7993 48.5858 53.6424 48.6793C47.8753 52.1087 41.3101 53.9195 34.6114 53.9046C34.3871 53.9045 34.3871 53.9045 34.1583 53.9043C29.173 53.8909 23.6328 53.0706 19.2009 50.6238C18.8023 50.3958 18.8022 50.3958 18.4841 50.5323C17.9848 50.8558 17.5871 51.2653 17.1733 51.6883C17.0796 51.7826 16.986 51.877 16.8895 51.9743C16.6866 52.179 16.484 52.384 16.2818 52.5894C15.9616 52.9145 15.6404 53.2385 15.3188 53.5622C14.4048 54.4826 13.4929 55.405 12.5815 56.328C12.0237 56.8928 11.4646 57.4564 10.9049 58.0193C10.692 58.2339 10.4795 58.449 10.2676 58.6646C9.97112 58.9661 9.67322 59.2661 9.37496 59.5658C9.28794 59.655 9.20092 59.7443 9.11127 59.8363C8.39647 60.5493 7.79649 60.8594 6.7894 60.8753C6.01536 60.858 5.58821 60.6877 4.99606 60.1661C4.42185 59.5143 4.16072 59.1265 4.14499 58.2613C4.13872 58.0569 4.13872 58.0569 4.13232 57.8484C4.25722 56.8195 4.89252 56.1465 5.60287 55.4453C5.69761 55.3499 5.79236 55.2544 5.88998 55.1561C6.20821 54.8361 6.52815 54.5178 6.84811 54.1995C7.07874 53.9683 7.30927 53.737 7.5397 53.5056C8.17361 52.8697 8.80903 52.2353 9.44471 51.6011C10.1298 50.9171 10.8136 50.2317 11.4975 49.5464C12.7601 48.2817 14.0238 47.0182 15.2882 45.7552C16.456 44.5886 17.6234 43.4215 18.7904 42.2539C18.8678 42.1765 18.9452 42.0991 19.0249 42.0193C19.339 41.705 19.6531 41.3908 19.9672 41.0765C22.9142 38.1281 25.8625 35.1811 28.8115 32.2347C31.4323 29.6162 34.0518 26.9965 36.6702 24.3758C39.6114 21.4319 42.5534 18.4889 45.4967 15.5472C45.8103 15.2337 46.124 14.9202 46.4376 14.6067C46.5149 14.5295 46.5921 14.4523 46.6717 14.3728C47.8387 13.2063 49.0051 12.0393 50.1712 10.872C51.4967 9.54498 52.8232 8.21889 54.1508 6.8939C54.8285 6.21748 55.5058 5.54067 56.1821 4.86281C56.8006 4.24284 57.4202 3.624 58.0408 3.00606C58.2656 2.78178 58.49 2.55708 58.714 2.33195C59.0175 2.02698 59.3224 1.72354 59.6278 1.42044C59.7152 1.33184 59.8027 1.24325 59.8928 1.15196C60.9313 0.12891 62.2394 -0.210305 63.5783 0.459161ZM51.0988 17.5907C50.9444 17.7463 50.9444 17.7463 50.7868 17.9049C50.6116 18.0802 50.6116 18.0802 50.4328 18.259C50.3069 18.3866 50.1809 18.5143 50.0511 18.6458C49.8575 18.8401 49.8575 18.8401 49.6599 19.0383C49.2462 19.4539 48.8337 19.8705 48.4211 20.2872C48.1415 20.5684 47.8618 20.8496 47.5821 21.1306C46.895 21.8213 46.2089 22.5129 45.5234 23.2051C45.7248 23.8226 45.9441 24.3965 46.2326 24.9782C47.5393 27.8863 47.8766 31.4074 46.8842 34.4793C46.0513 36.5419 45.0652 38.371 43.416 39.9024C43.3207 39.9985 43.2254 40.0946 43.1272 40.1937C40.4514 42.7697 37.0409 43.393 33.4551 43.351C31.4803 43.2943 29.8725 42.6879 28.1657 41.7331C27.6475 41.5041 27.5511 41.4969 27.0429 41.6856C26.6855 42.0015 26.354 42.318 26.0222 42.6589C25.9259 42.7558 25.8297 42.8527 25.7305 42.9526C25.4238 43.262 25.1189 43.5731 24.8139 43.8842C24.6061 44.0944 24.3982 44.3046 24.1902 44.5146C23.6808 45.0293 23.173 45.5455 22.666 46.0625C23.1104 46.4232 23.5005 46.6447 24.0439 46.8218C24.186 46.8682 24.328 46.9145 24.4744 46.9623C33.1071 49.6554 41.6674 48.8481 49.7079 44.715C51.3163 43.8675 52.8315 42.9494 54.2773 41.8477C54.3805 41.7702 54.4836 41.6926 54.5899 41.6127C58.0806 38.9645 61.4521 35.7237 62.8691 31.4727C63.1535 28.8769 61.7333 26.7227 60.2059 24.737C58.3266 22.3954 56.0807 20.3865 53.6289 18.6661C53.529 18.5956 53.4291 18.5251 53.3262 18.4525C52.2616 17.5156 52.2616 17.5156 51.0988 17.5907ZM40.6407 28.0439C40.5494 28.1359 40.4581 28.2278 40.364 28.3226C40.2675 28.4185 40.171 28.5144 40.0716 28.6133C39.7515 28.9319 39.4326 29.2518 39.1138 29.5717C38.8926 29.7927 38.6713 30.0136 38.45 30.2345C37.9859 30.6982 37.5223 31.1624 37.0592 31.6271C36.4643 32.2238 35.8679 32.8192 35.2711 33.414C34.8138 33.8702 34.3573 34.327 33.901 34.7841C33.6814 35.004 33.4615 35.2236 33.2413 35.443C32.9343 35.7493 32.6282 36.0565 32.3225 36.3641C32.1846 36.501 32.1846 36.501 32.0438 36.6408C31.5699 37.0587 31.5699 37.0587 31.4199 37.6329C33.6378 38.3691 35.653 38.4782 37.8498 37.5113C39.8505 36.4407 41.2477 34.6931 41.9754 32.5663C42.1398 31.8718 42.1746 31.241 42.1698 30.5304C42.1696 30.4027 42.1693 30.2749 42.1691 30.1433C42.1532 29.1767 42.0113 28.3167 41.6328 27.42C41.149 27.42 40.9682 27.72 40.6407 28.0439Z" fill="url(#paint0_linear_38_2)"/>
<path d="M34.3886 7.09542C34.5379 7.09546 34.6872 7.09549 34.8411 7.09553C43.5374 7.11539 43.5374 7.11539 45.3614 8.93942C45.4414 9.53386 45.425 9.81751 45.0869 10.3201C44.6721 10.7487 44.2555 11.1744 43.8315 11.594C43.6891 11.7442 43.5467 11.8945 43.3999 12.0493C42.2011 13.2508 42.2011 13.2508 41.372 13.2663C41.0133 13.2236 41.0133 13.2236 40.6602 13.1543C40.5446 13.1381 40.4291 13.1219 40.31 13.1052C39.9486 13.0522 39.5908 12.9873 39.2316 12.9212C30.7838 11.5095 22.1039 14.0544 15.192 18.9744C13.8134 19.9742 12.543 21.0495 11.3184 22.2324C11.1553 22.3853 10.9921 22.5381 10.8289 22.6909C8.78931 24.6298 6.33436 27.4514 6.23225 30.4088C6.24464 31.5528 6.58708 32.4099 7.10358 33.4179C7.18404 33.5765 7.26449 33.7351 7.34738 33.8986C8.64183 36.2722 10.8567 38.8666 13.0978 40.3931C13.4258 40.7129 13.4258 40.7129 13.5595 41.2308C13.3566 42.1671 12.7787 42.6413 12.0986 43.2863C11.9739 43.4113 11.8493 43.5363 11.7209 43.665C10.6681 44.6915 10.6681 44.6915 9.85944 44.7656C9.53649 44.6085 9.53649 44.6085 9.23127 44.3603C9.12031 44.2702 9.00934 44.1802 8.89502 44.0874C8.38195 43.633 7.90156 43.1531 7.4278 42.6582C7.23722 42.4676 7.23722 42.4676 7.04279 42.2732C6.90236 42.1327 6.76194 41.9923 6.61726 41.8476C6.51632 41.7542 6.41539 41.6608 6.3114 41.5646C3.66651 39.0526 0.902689 35.1795 0.742691 31.4125C0.642 26.8688 2.76759 23.4952 5.6446 20.125C5.75493 19.9946 5.86527 19.8642 5.97895 19.7298C6.57486 19.0408 7.19148 18.4186 7.88817 17.832C8.13575 17.6193 8.37717 17.3994 8.61386 17.1747C10.7773 15.1236 13.2869 13.5109 15.8575 12.0195C15.9561 11.9613 16.0547 11.9031 16.1562 11.8431C21.6202 8.64128 28.0945 7.08205 34.3886 7.09542Z" fill="url(#paint1_linear_38_2)"/>
<path d="M36.121 17.5313C36.4453 17.8555 36.4453 17.8555 36.5233 18.2962C36.4162 19.0261 36.0279 19.3854 35.5207 19.8818C35.3765 20.0274 35.3765 20.0274 35.2294 20.176C35.0251 20.381 34.8195 20.5848 34.6128 20.7874C34.3017 21.0933 33.9961 21.4041 33.6907 21.7157C32.6572 22.7523 31.7214 23.5608 30.3642 24.1574C29.173 24.6963 28.4 25.7715 27.8623 26.9247C27.2037 28.1783 26.3091 29.1122 25.3028 30.0974C25.0027 30.3922 24.7083 30.6919 24.414 30.9924C24.2232 31.1825 24.0321 31.3724 23.8406 31.562C23.7535 31.6511 23.6663 31.7402 23.5765 31.832C23.1503 32.2426 22.8915 32.4363 22.2987 32.5208C21.8554 32.4453 21.8554 32.4453 21.5312 32.1211C21.0755 28.8271 21.9331 25.6411 23.7843 22.9138C24.0502 22.5678 24.3244 22.237 24.6113 21.9082C24.799 21.6728 24.799 21.6728 24.9906 21.4326C27.5932 18.3148 32.198 16.9886 36.121 17.5313Z" fill="url(#paint2_linear_38_2)"/>
<defs>
<linearGradient id="paint0_linear_38_2" x1="68.2608" y1="30.4941" x2="4.13232" y2="30.4941" gradientUnits="userSpaceOnUse">
<stop stop-color="#C73967"/>
<stop offset="1" stop-color="#FF89AC"/>
</linearGradient>
<linearGradient id="paint1_linear_38_2" x1="45.4013" y1="25.9305" x2="0.739258" y2="25.9305" gradientUnits="userSpaceOnUse">
<stop stop-color="#C73967"/>
<stop offset="1" stop-color="#FF89AC"/>
</linearGradient>
<linearGradient id="paint2_linear_38_2" x1="36.5233" y1="24.9668" x2="21.4109" y2="24.9668" gradientUnits="userSpaceOnUse">
<stop stop-color="#C73967"/>
<stop offset="1" stop-color="#FF89AC"/>
</linearGradient>
</defs>
</svg>
