<svg width="96" height="44" viewBox="0 0 96 44" fill="none" xmlns="http://www.w3.org/2000/svg">
<path d="M37.0772 6.1722C39.1161 7.7979 41.1028 9.59019 42.758 11.6111C42.9314 11.8135 43.1053 12.0155 43.2794 12.2172C43.4684 12.4373 43.6573 12.6574 43.8462 12.8776C43.9363 12.9818 44.0263 13.0861 44.1191 13.1935C44.8985 14.1104 45.2902 14.6965 45.2488 15.933C45.1517 16.5605 44.9203 16.8331 44.4429 17.2398C43.7168 17.5774 43.1602 17.6734 42.3836 17.4626C41.408 16.7497 40.6885 15.8216 39.9395 14.8799C35.7976 9.67977 30.3539 5.99815 23.6855 5.17324C18.7579 4.65506 14.089 5.91561 10.2082 9.04079C9.7473 9.44664 9.30589 9.86299 8.87211 10.2977C8.75554 10.4145 8.63898 10.5314 8.51889 10.6517C5.29319 14.1169 4.01592 18.7329 4.16706 23.3665C4.38555 27.2626 6.1467 30.8408 8.68489 33.7507C8.79349 33.8775 8.90209 34.0042 9.01398 34.1348C10.6221 35.879 12.8429 37.2365 15.0502 38.0661C15.2336 38.135 15.417 38.2039 15.606 38.275C20.4532 39.9283 26.0201 39.3036 30.6078 37.1293C33.2004 35.82 35.4095 34.0532 37.516 32.0621C37.6306 31.955 37.7452 31.8478 37.8633 31.7374C38.7453 30.8859 39.5074 29.9437 40.2706 28.9856C40.5248 28.6681 40.7819 28.3532 41.0394 28.0385C42.235 26.5695 43.35 25.0596 44.4305 23.504C45.0173 22.6592 45.6182 21.8252 46.2215 20.9923C46.9146 20.0352 47.6006 19.074 48.2751 18.1036C49.9731 15.6651 51.744 13.276 53.7759 11.1047C54.1307 10.7239 54.4652 10.3339 54.7982 9.9342C59.0047 5.11909 65.2788 1.4524 71.7215 0.940709C77.5323 0.613253 83.4504 1.48321 88.0164 5.41657C88.1557 5.54137 88.2949 5.66617 88.4384 5.79475C88.5912 5.92342 88.7439 6.05209 88.9013 6.18466C92.7998 9.54217 95.4059 14.3505 95.927 19.4913C96.3573 25.8662 94.9181 31.3491 90.7358 36.2421C87.1975 40.2665 82.0128 42.9986 76.6298 43.358C68.2034 43.621 61.659 40.8304 55.5401 35.0802C54.7208 34.3004 53.9591 33.5005 53.242 32.625C53.0686 32.4226 52.8947 32.2206 52.7206 32.0189C52.5316 31.7988 52.3427 31.5787 52.1538 31.3585C52.0638 31.2543 51.9737 31.15 51.8809 31.0426C51.0999 30.1238 50.7145 29.5405 50.749 28.303C50.8457 27.7011 51.1173 27.4013 51.5571 26.9963C52.3417 26.5287 52.9298 26.6054 53.8037 26.8086C54.2819 27.2059 54.2819 27.2059 54.7163 27.7233C54.9571 28.0048 54.9571 28.0048 55.2027 28.292C55.6325 28.8194 56.0583 29.3497 56.4832 29.881C60.6074 34.9731 66.1885 38.4186 72.7392 39.1075C77.5235 39.5191 82.0363 38.2196 85.7918 35.1953C86.2527 34.7895 86.6941 34.3731 87.1279 33.9384C87.2445 33.8215 87.361 33.7047 87.4811 33.5844C90.7068 30.1192 91.9841 25.5031 91.833 20.8695C91.6145 16.9734 89.8533 13.3953 87.3151 10.4854C87.1522 10.2952 87.1522 10.2952 86.986 10.1013C85.3779 8.35713 83.1571 6.99955 80.9498 6.17C80.7664 6.10107 80.583 6.03214 80.394 5.96112C75.5468 4.30779 69.9799 4.93253 65.3922 7.10683C62.7996 8.41605 60.5905 10.1829 58.484 12.174C58.3694 12.2811 58.2548 12.3883 58.1367 12.4986C57.2547 13.3502 56.4926 14.2924 55.7294 15.2505C55.4752 15.568 55.2181 15.8829 54.9606 16.1976C53.765 17.6665 52.65 19.1765 51.5695 20.7321C50.9828 21.5769 50.3818 22.4109 49.7785 23.2438C49.0855 24.2009 48.3994 25.1621 47.7249 26.1324C46.0269 28.571 44.256 30.9601 42.2241 33.1314C41.8693 33.5122 41.5348 33.9022 41.2018 34.3019C36.9953 39.117 30.7212 42.7837 24.2785 43.2954C18.4677 43.6228 12.5496 42.7529 7.98357 38.8195C7.84432 38.6947 7.70507 38.5699 7.5616 38.4413C7.40884 38.3127 7.25608 38.184 7.09869 38.0514C3.20017 34.6939 0.594095 29.8855 0.0730108 24.7448C-0.357334 18.3699 1.08196 12.887 5.26425 7.99402C13.4527 -1.31971 27.6117 -1.01216 37.0772 6.1722Z" fill="url(#paint0_linear_10_105)"/>
<defs>
<linearGradient id="paint0_linear_10_105" x1="96" y1="22.1263" x2="0" y2="22.1263" gradientUnits="userSpaceOnUse">
<stop stop-color="#C73967"/>
<stop offset="1" stop-color="#FF89AC"/>
</linearGradient>
</defs>
</svg>
