<svg width="16" height="17" viewBox="0 0 16 17" fill="none" xmlns="http://www.w3.org/2000/svg">
<path d="M12.0333 0.517324C12.0542 0.533705 12.075 0.550085 12.0964 0.566963C12.5316 0.935319 12.7053 1.51004 12.8015 2.07391C12.9217 3.41598 12.4267 4.78483 11.7911 5.91678C11.773 5.94905 11.7549 5.98131 11.7362 6.01456C11.7225 6.03888 11.7089 6.0632 11.6948 6.08826C11.7344 6.08846 11.7344 6.08846 11.7749 6.08866C12.0264 6.09005 12.2778 6.09213 12.5293 6.09495C12.6585 6.09638 12.7877 6.09756 12.9169 6.09813C13.0421 6.09868 13.1672 6.09995 13.2923 6.10167C13.3396 6.1022 13.3869 6.1025 13.4342 6.10253C14.0955 6.1034 14.6756 6.31431 15.1821 6.78007C15.212 6.8038 15.212 6.8038 15.2425 6.82801C15.6709 7.17954 15.9139 7.78911 15.9946 8.34576C16.0138 8.68923 15.9801 9.0125 15.9196 9.34914C15.9116 9.39558 15.9037 9.44201 15.8954 9.48986C15.8738 9.61574 15.8516 9.74151 15.8293 9.86726C15.8058 10.0002 15.7828 10.1332 15.7597 10.2662C15.7209 10.4897 15.6817 10.7132 15.6423 10.9366C15.5971 11.1927 15.5524 11.4489 15.5079 11.7052C15.46 11.9807 15.4119 12.2561 15.3637 12.5315C15.3501 12.6096 15.3365 12.6877 15.3229 12.7658C14.8536 15.4578 14.8536 15.4578 13.893 16.2204C13.51 16.4882 13.1078 16.6169 12.652 16.6162C12.6263 16.6164 12.6006 16.6165 12.5742 16.6166C12.4884 16.6169 12.4026 16.6169 12.3169 16.617C12.2553 16.6172 12.1936 16.6174 12.132 16.6175C11.9647 16.618 11.7974 16.6183 11.6302 16.6184C11.5255 16.6185 11.4208 16.6187 11.3162 16.6188C10.9882 16.6193 10.6603 16.6197 10.3324 16.6198C9.9547 16.62 9.57703 16.6206 9.19936 16.6217C8.90689 16.6225 8.61443 16.6228 8.32197 16.6229C8.14756 16.6229 7.97315 16.6231 7.79874 16.6238C7.63445 16.6244 7.47016 16.6245 7.30586 16.6242C7.24589 16.6241 7.18593 16.6243 7.12596 16.6246C6.50842 16.6282 5.94805 16.5338 5.43975 16.125C5.36056 16.0627 5.2789 16.0088 5.19415 15.9557C5.17765 15.9764 5.16115 15.9971 5.14416 16.0185C4.83583 16.3796 4.43992 16.5931 3.9816 16.6182C3.82199 16.6223 3.66239 16.6222 3.50274 16.6221C3.44342 16.6222 3.3841 16.6224 3.32478 16.6226C3.20079 16.6228 3.0768 16.6228 2.95281 16.6226C2.79493 16.6224 2.63706 16.623 2.47918 16.6239C2.35674 16.6244 2.23431 16.6244 2.11187 16.6243C2.05371 16.6244 1.99555 16.6245 1.93739 16.6249C1.37938 16.628 0.891326 16.554 0.46047 16.131C0.0175391 15.6092 -0.0011792 15.0197 0.000833661 14.3531C0.000695829 14.2762 0.000514868 14.1993 0.000294308 14.1224C-0.000166697 13.9146 9.67301e-06 13.7068 0.000332538 13.499C0.000590708 13.281 0.000351202 13.063 0.000192017 12.845C7.53485e-06 12.479 0.000249964 12.1131 0.00073447 11.7471C0.00128733 11.3246 0.00110753 10.9021 0.000548486 10.4797C8.68577e-05 10.1162 2.36646e-05 9.75272 0.000289142 9.38924C0.000447091 9.17247 0.000469756 8.95571 0.000133122 8.73895C-0.000161306 8.53515 4.49849e-05 8.33136 0.000630112 8.12756C0.000763866 8.05298 0.000726922 7.97841 0.00050199 7.90383C-0.00116521 7.29469 0.0485228 6.73631 0.454122 6.27032C0.791547 5.95715 1.13639 5.79216 1.58042 5.79052C1.60857 5.79028 1.63672 5.79004 1.66572 5.7898C1.75883 5.78908 1.85193 5.78865 1.94504 5.78829C1.97694 5.78814 2.00885 5.78799 2.04173 5.78784C2.21075 5.78708 2.37978 5.78656 2.54881 5.78622C2.72268 5.78582 2.89653 5.78457 3.0704 5.78312C3.20469 5.78216 3.33897 5.78186 3.47326 5.78173C3.5373 5.78155 3.60135 5.78113 3.6654 5.78046C4.30985 5.77405 4.30985 5.77405 4.61858 5.94261C4.64903 5.95919 4.67948 5.97577 4.71086 5.99285C5.07892 6.20313 5.26496 6.52561 5.43115 6.92572C5.46721 6.8932 5.50316 6.86056 5.53907 6.82786C5.56912 6.80062 5.56912 6.80062 5.59978 6.77282C5.66325 6.71195 5.72363 6.64878 5.78342 6.58377C5.85313 6.50818 5.92347 6.43331 5.99377 6.35836C6.05311 6.29488 6.11244 6.23139 6.17178 6.16791C6.20133 6.13644 6.23088 6.10497 6.26132 6.07254C6.43207 5.8896 6.59557 5.70321 6.75159 5.50568C6.78335 5.46626 6.81513 5.42686 6.84694 5.38748C7.45247 4.63227 8.02044 3.85161 8.54603 3.02971C8.56264 3.00373 8.57925 2.97776 8.59637 2.951C9.06695 2.21154 9.48514 1.44198 9.84345 0.632531C9.85535 0.605907 9.86726 0.579282 9.87952 0.55185C9.90091 0.503656 9.92187 0.455242 9.94228 0.406561C10.023 0.224292 10.1295 0.0897731 10.3082 0.014961C10.9252 -0.0540522 11.5375 0.116084 12.0333 0.517324ZM10.8483 1.24555C10.8381 1.26581 10.828 1.28607 10.8175 1.30695C10.7117 1.51721 10.6052 1.72704 10.4982 1.93657C10.4633 2.00497 10.4285 2.07343 10.3938 2.14198C9.5379 3.83125 8.40056 5.38738 7.18023 6.78816C7.11854 6.8592 7.05727 6.93065 6.996 7.0021C6.70117 7.34433 6.39554 7.6681 6.07444 7.98165C6.03862 8.01699 6.00282 8.05236 5.96705 8.08775C5.71031 8.34073 5.71031 8.34073 5.59676 8.4096C5.51822 8.48088 5.50025 8.52026 5.48016 8.6302C5.47303 8.76784 5.47256 8.9046 5.47419 9.04234C5.47408 9.09541 5.47389 9.14848 5.47361 9.20154C5.47312 9.34557 5.47389 9.48955 5.47492 9.63356C5.47582 9.78467 5.47564 9.93577 5.4756 10.0869C5.47569 10.3409 5.47657 10.595 5.47796 10.849C5.47955 11.1418 5.48009 11.4345 5.48002 11.7272C5.47995 12.0398 5.48066 12.3524 5.48159 12.665C5.4818 12.7545 5.48188 12.844 5.48192 12.9336C5.48202 13.0751 5.48265 13.2166 5.48366 13.3582C5.48395 13.4098 5.48408 13.4614 5.48402 13.5129C5.48368 13.9998 5.53424 14.4251 5.80358 14.827C5.82715 14.8623 5.82715 14.8623 5.85119 14.8984C6.06674 15.1933 6.34451 15.3447 6.68387 15.4096C6.88361 15.425 7.08263 15.4249 7.28279 15.4243C7.34262 15.4245 7.40244 15.4247 7.46227 15.425C7.62379 15.4257 7.78531 15.4256 7.94683 15.4254C8.08204 15.4253 8.21724 15.4255 8.35245 15.4258C8.67155 15.4263 8.99065 15.4262 9.30975 15.4258C9.63822 15.4254 9.96668 15.4259 10.2952 15.4269C10.5779 15.4277 10.8607 15.4279 11.1435 15.4277C11.312 15.4276 11.4806 15.4277 11.6491 15.4283C11.8077 15.4289 11.9662 15.4287 12.1247 15.428C12.1826 15.4279 12.2406 15.428 12.2985 15.4284C12.7521 15.4312 13.1085 15.3819 13.4458 15.0284C13.8494 14.5468 13.984 13.923 14.0884 13.3027C14.0993 13.2407 14.1101 13.1788 14.121 13.1169C14.1498 12.9525 14.178 12.788 14.2061 12.6234C14.2353 12.4524 14.2651 12.2814 14.2949 12.1105C14.3427 11.8356 14.3901 11.5607 14.4374 11.2858C14.4937 10.9582 14.5512 10.6308 14.6092 10.3035C14.6398 10.1307 14.6703 9.95788 14.7007 9.78505C14.7168 9.69395 14.7329 9.60287 14.7491 9.5118C14.7713 9.38696 14.7932 9.26206 14.8149 9.13714C14.8214 9.10136 14.8278 9.06558 14.8344 9.02872C14.8955 8.6743 14.8997 8.38237 14.7419 8.05447C14.4983 7.69024 14.169 7.42698 13.7601 7.32624C13.5499 7.30313 13.3381 7.30652 13.127 7.30744C13.0204 7.3079 12.9138 7.30749 12.8071 7.30686C12.6193 7.30589 12.4314 7.30568 12.2436 7.30573C11.9426 7.30581 11.6416 7.30529 11.3406 7.30371C11.2359 7.30335 11.1312 7.30367 11.0264 7.30402C10.962 7.3038 10.8975 7.30355 10.833 7.30326C10.8041 7.30355 10.7753 7.30383 10.7456 7.30412C10.5548 7.30239 10.4129 7.26656 10.2389 7.1806C10.1112 7.03979 10.0644 6.91766 10.0548 6.72318C10.0593 6.44308 10.2033 6.25962 10.3549 6.0436C11.012 5.10655 11.6303 3.89981 11.6948 2.702C11.6965 2.6715 11.6983 2.64099 11.7002 2.60955C11.7125 2.20961 11.6499 1.80258 11.39 1.50043C11.223 1.34904 11.0579 1.29802 10.8483 1.24555ZM1.22438 7.1988C1.11895 7.36077 1.12632 7.5094 1.12651 7.69964C1.12641 7.73065 1.12631 7.76167 1.12621 7.79362C1.12591 7.89794 1.12586 8.00225 1.12581 8.10657C1.12566 8.18121 1.12549 8.25584 1.1253 8.33048C1.12486 8.53353 1.12464 8.73657 1.12449 8.93962C1.12439 9.06642 1.12425 9.19322 1.1241 9.32002C1.12364 9.71658 1.12331 10.1131 1.12318 10.5097C1.12303 10.9678 1.12243 11.4259 1.12145 11.8839C1.12072 12.2378 1.12038 12.5917 1.12034 12.9456C1.1203 13.157 1.1201 13.3685 1.1195 13.5799C1.11894 13.7788 1.11886 13.9777 1.11916 14.1766C1.11919 14.2496 1.11904 14.3226 1.11871 14.3956C1.11828 14.4953 1.11847 14.5949 1.11883 14.6946C1.11855 14.7235 1.11828 14.7524 1.118 14.7822C1.11945 14.9571 1.14414 15.0754 1.23284 15.2275C1.39989 15.3937 1.51861 15.4142 1.742 15.4154C1.76612 15.4156 1.79025 15.4158 1.81511 15.416C1.89492 15.4165 1.97473 15.4168 2.05454 15.417C2.11008 15.4172 2.16562 15.4174 2.22116 15.4176C2.33766 15.418 2.45415 15.4182 2.57064 15.4183C2.71967 15.4185 2.86869 15.4194 3.01771 15.4204C3.13247 15.4211 3.24723 15.4213 3.362 15.4213C3.41692 15.4215 3.47185 15.4217 3.52677 15.4222C3.60376 15.4228 3.68071 15.4228 3.7577 15.4225C3.80145 15.4227 3.8452 15.4228 3.89028 15.4229C4.06421 15.4034 4.17371 15.3463 4.29058 15.207C4.39064 15.0516 4.3866 14.931 4.38656 14.7467C4.38668 14.7155 4.38681 14.6842 4.38693 14.652C4.38731 14.5467 4.38744 14.4413 4.38757 14.336C4.38778 14.2607 4.388 14.1854 4.38824 14.1101C4.38883 13.9051 4.38919 13.7001 4.38947 13.4951C4.38964 13.3671 4.38985 13.239 4.39006 13.111C4.3907 12.7106 4.39119 12.3102 4.39147 11.9098C4.3918 11.4473 4.39269 10.9848 4.39406 10.5224C4.39508 10.1651 4.39558 9.80785 4.39569 9.4506C4.39577 9.23713 4.39608 9.02367 4.39693 8.8102C4.39772 8.60933 4.39786 8.40848 4.39751 8.20761C4.39749 8.13391 4.39771 8.06021 4.39817 7.98652C4.39877 7.88583 4.39853 7.78517 4.39809 7.68448C4.39846 7.65538 4.39883 7.62628 4.39921 7.5963C4.39705 7.3933 4.35351 7.27547 4.24614 7.10778C4.1137 6.98814 3.9877 6.98284 3.82101 6.98441C3.78324 6.98412 3.78324 6.98412 3.74471 6.98383C3.66179 6.98335 3.5789 6.98366 3.49599 6.98403C3.43819 6.98396 3.38039 6.98385 3.32259 6.98372C3.20157 6.98356 3.08056 6.98379 2.95955 6.9843C2.8046 6.98492 2.64966 6.98456 2.49471 6.98391C2.37539 6.98352 2.25608 6.98364 2.13675 6.98392C2.07963 6.984 2.0225 6.98391 1.96537 6.98365C1.88547 6.98338 1.80559 6.9838 1.72569 6.98441C1.70219 6.98419 1.67868 6.98397 1.65447 6.98374C1.45923 6.98648 1.35353 7.04448 1.22438 7.1988Z" fill="url(#paint0_linear_20_74)"/>
<defs>
<linearGradient id="paint0_linear_20_74" x1="16" y1="8.3125" x2="0" y2="8.3125" gradientUnits="userSpaceOnUse">
<stop stop-color="#C73967"/>
<stop offset="1" stop-color="#FF89AC"/>
</linearGradient>
</defs>
</svg>
