<svg width="52" height="55" viewBox="0 0 52 55" fill="none" xmlns="http://www.w3.org/2000/svg">
<path d="M51.2071 0.499963C51.2119 5.19895 51.2156 9.89793 51.2179 14.5969C51.2181 15.1523 51.2184 15.7076 51.2187 16.263C51.2188 16.4288 51.2188 16.4288 51.2188 16.598C51.2198 18.3857 51.2214 20.1734 51.2234 21.9612C51.2253 23.7969 51.2265 25.6327 51.2269 27.4684C51.2272 28.6002 51.2281 29.7321 51.2299 30.8639C51.231 31.6411 51.2313 32.4183 51.231 33.1955C51.2309 33.6432 51.2311 34.0909 51.2322 34.5387C51.2333 34.9498 51.2333 35.361 51.2326 35.7722C51.2325 35.9197 51.2328 36.0672 51.2334 36.2147C51.2455 39.036 50.6753 41.3962 48.8868 43.6367C48.8184 43.7264 48.75 43.8161 48.6795 43.9086C47.2636 45.5936 44.9289 46.6577 42.7696 46.9062C39.9201 47.0633 37.349 46.358 35.174 44.4558C33.2609 42.7085 32.255 40.2933 32.0975 37.7243C32.0418 35.105 32.9722 32.7069 34.7371 30.7893C36.3397 29.1305 38.6384 27.9726 40.963 27.9004C43.6113 27.8631 45.7218 28.4953 47.8321 30.1367C47.8669 25.1248 47.9017 20.1129 47.9376 14.9492C43.1403 16.156 43.1403 16.156 38.3436 17.3647C38.2722 17.3827 38.2009 17.4007 38.1273 17.4192C35.9949 17.9572 33.8632 18.4979 31.7335 19.0466C31.6587 19.0659 31.5839 19.0851 31.5069 19.105C31.1157 19.2058 30.7246 19.3066 30.3334 19.4076C28.0889 19.9872 25.8418 20.5555 23.5925 21.1162C23.1833 21.2183 22.7741 21.3205 22.3649 21.4227C21.5727 21.6204 20.7805 21.8181 19.9883 22.0156C19.988 22.136 19.9876 22.2564 19.9873 22.3804C19.9787 25.3136 19.969 28.2468 19.958 31.18C19.957 31.4627 19.9559 31.7455 19.9549 32.0282C19.9546 32.0984 19.9543 32.1687 19.9541 32.2411C19.9499 33.3763 19.9464 34.5116 19.9433 35.6468C19.94 36.8131 19.9359 37.9794 19.9311 39.1458C19.9284 39.8002 19.9261 40.4547 19.9247 41.1092C19.9233 41.7261 19.921 42.343 19.9179 42.9598C19.917 43.1854 19.9164 43.411 19.9162 43.6366C19.9127 46.6292 19.4268 49.274 17.3516 51.5468C17.2821 51.6236 17.2127 51.7005 17.1411 51.7796C15.7338 53.2605 13.5162 54.4006 11.4616 54.517C8.23776 54.5631 5.778 53.9056 3.39019 51.6239C1.63093 49.7821 0.784983 47.3192 0.793026 44.7968C0.875524 42.525 1.68564 40.3721 3.21881 38.6796C3.29535 38.5933 3.37189 38.507 3.45076 38.418C5.1316 36.6261 7.46554 35.6113 9.91442 35.4987C12.4286 35.4252 14.5144 36.2354 16.5079 37.7304C16.5427 28.2984 16.5775 18.8663 16.6133 9.1484C21.2457 7.95901 25.8779 6.77209 30.5164 5.6074C31.8798 5.26505 33.2429 4.92191 34.6061 4.57864C34.6767 4.56086 34.7473 4.54308 34.82 4.52477C37.2152 3.92161 39.6088 3.31272 42.0006 2.69628C42.3841 2.59744 42.7676 2.49868 43.1512 2.39992C43.2241 2.38113 43.2971 2.36235 43.3722 2.34299C43.5869 2.28771 43.8016 2.23244 44.0163 2.17716C44.0847 2.15955 44.1531 2.14194 44.2235 2.12379C45.5712 1.77685 46.9193 1.43195 48.2687 1.09195C48.4876 1.03673 48.7064 0.981299 48.9252 0.925636C49.215 0.851938 49.5051 0.779031 49.7952 0.706368C49.8784 0.685062 49.9616 0.663756 50.0473 0.641804C50.4445 0.5433 50.799 0.490943 51.2071 0.499963ZM47.4115 4.71588C47.3206 4.73871 47.2297 4.76154 47.136 4.78507C47.0352 4.81053 46.9344 4.83598 46.8306 4.86221C46.7246 4.88887 46.6187 4.91552 46.5095 4.94299C46.154 5.03249 45.7985 5.12217 45.443 5.21186C45.1926 5.27496 44.9421 5.33804 44.6917 5.40113C44.0175 5.57102 43.3432 5.74111 42.669 5.91126C42.3192 5.99954 41.9694 6.08778 41.6196 6.176C38.0301 7.08128 34.4417 7.99052 30.8571 8.91508C30.483 9.01157 30.1089 9.10802 29.7347 9.20443C29.6617 9.22325 29.5886 9.24207 29.5134 9.26147C28.2332 9.59121 26.9518 9.91591 25.6701 10.2393C25.4828 10.2866 25.2955 10.3339 25.1082 10.3812C24.2949 10.5865 23.4814 10.7916 22.6678 10.9958C22.3402 11.0781 22.0126 11.1607 21.685 11.2434C21.5324 11.2818 21.3797 11.3202 21.227 11.3583C21.0188 11.4104 20.8107 11.4629 20.6026 11.5155C20.4275 11.5595 20.4275 11.5595 20.2488 11.6044C19.9964 11.6546 19.9964 11.6546 19.8829 11.7851C19.8729 11.9987 19.8705 12.2126 19.8709 12.4264C19.8709 12.5636 19.8709 12.7009 19.8709 12.8423C19.8715 12.9932 19.872 13.1441 19.8726 13.2951C19.8728 13.4486 19.8729 13.6022 19.873 13.7557C19.8734 14.1606 19.8745 14.5654 19.8756 14.9703C19.8767 15.3831 19.8772 15.796 19.8777 16.2088C19.8789 17.0194 19.8807 17.83 19.8829 18.6406C23.8528 17.6519 27.8209 16.6557 31.7877 15.6545C31.9546 15.6124 31.9546 15.6124 32.1249 15.5694C35.5437 14.7064 38.9607 13.8365 42.3751 12.9559C42.5956 12.899 42.8162 12.8421 43.0368 12.7853C43.1777 12.749 43.3186 12.7126 43.4595 12.6762C44.2201 12.48 44.9813 12.2862 45.7438 12.0975C45.8134 12.0802 45.8831 12.063 45.9548 12.0452C46.2857 11.9633 46.6167 11.8818 46.9478 11.8009C47.0629 11.7726 47.178 11.7442 47.2965 11.7149C47.3978 11.6902 47.4991 11.6654 47.6035 11.6399C47.8279 11.5953 47.828 11.5953 47.9376 11.4687C47.9475 11.2551 47.9499 11.0412 47.9495 10.8274C47.9495 10.6216 47.9495 10.6216 47.9495 10.4115C47.949 10.2606 47.9484 10.1097 47.9479 9.95878C47.9477 9.80523 47.9475 9.65168 47.9474 9.49813C47.947 9.09326 47.946 8.6884 47.9448 8.28354C47.9437 7.87069 47.9432 7.45784 47.9427 7.045C47.9416 6.23441 47.9398 5.42383 47.9376 4.61324C47.7567 4.61324 47.5862 4.67185 47.4115 4.71588ZM37.1797 32.9843C35.86 34.4918 35.2808 36.1854 35.409 38.1824C35.6439 39.864 36.5351 41.2767 37.8126 42.3711C39.2774 43.447 40.9983 43.8332 42.7857 43.5918C44.5516 43.2054 45.9944 42.186 46.9883 40.6836C47.8906 39.1717 48.1028 37.5415 47.7266 35.832C47.4478 34.8552 47.0048 34.078 46.3555 33.3007C46.2929 33.2249 46.2302 33.149 46.1656 33.0709C45.1351 31.9366 43.5845 31.2541 42.0667 31.1699C40.1959 31.1478 38.5516 31.6463 37.1797 32.9843ZM5.40522 41.1549C5.162 41.5106 4.96293 41.8817 4.76788 42.2656C4.71442 42.3707 4.71442 42.3707 4.65989 42.478C3.96577 43.9077 3.93619 45.4374 4.37937 46.9515C4.65613 47.7279 5.03067 48.3695 5.53912 49.0156C5.6368 49.1461 5.6368 49.1461 5.73646 49.2793C6.46213 50.1314 7.44473 50.6665 8.49224 51.0195C8.60441 51.058 8.71657 51.0964 8.83213 51.1361C10.4254 51.5134 12.0561 51.2441 13.4756 50.4658C15.0612 49.4819 16.0526 48.0848 16.5079 46.2734C16.7567 44.5223 16.51 42.8058 15.4282 41.352C14.3432 40.0022 12.9366 39.0697 11.2023 38.8152C8.98499 38.5806 6.84305 39.4336 5.40522 41.1549Z" fill="url(#paint0_linear_10_115)"/>
<defs>
<linearGradient id="paint0_linear_10_115" x1="51.2336" y1="27.5091" x2="0.792969" y2="27.5091" gradientUnits="userSpaceOnUse">
<stop stop-color="#FF89AC"/>
<stop offset="1" stop-color="#C73967"/>
</linearGradient>
</defs>
</svg>
