<svg width="15" height="17" viewBox="0 0 15 17" fill="none" xmlns="http://www.w3.org/2000/svg">
<path d="M13.8274 0.549928C14.4128 1.01461 14.8086 1.67497 14.9044 2.42383C14.9497 3.22527 14.79 3.89978 14.3067 4.54883C14.2908 4.57049 14.2749 4.59214 14.2585 4.61446C13.8596 5.11646 13.1835 5.4723 12.5545 5.56879C11.9676 5.61995 11.4236 5.57239 10.8868 5.3125C10.8561 5.29782 10.8254 5.28314 10.7938 5.26801C10.5869 5.16238 10.4129 5.03311 10.2364 4.88255C10.1671 4.82363 10.0965 4.76897 10.0235 4.71485C9.53091 5.01771 9.03858 5.32103 8.54704 5.62568C8.46234 5.67814 8.37759 5.73054 8.29283 5.78292C7.98724 5.97182 7.68216 6.1615 7.37767 6.35217C7.05649 6.55328 6.73415 6.75245 6.41112 6.95058C6.25203 7.04823 6.09315 7.14612 5.93541 7.24593C5.91048 7.26169 5.88555 7.27745 5.85986 7.29369C5.81486 7.32222 5.76993 7.35088 5.7251 7.3797C5.58159 7.4707 5.58159 7.4707 5.50792 7.4707C5.51712 7.50156 5.52632 7.53242 5.53581 7.56422C5.54783 7.60526 5.55986 7.64631 5.57225 7.6886C5.58419 7.72905 5.59613 7.76949 5.60844 7.81117C5.7546 8.37408 5.69718 8.98455 5.50792 9.5293C5.53211 9.53839 5.5563 9.54747 5.58122 9.55684C5.66988 9.594 5.74731 9.63622 5.82919 9.68636C5.859 9.70456 5.88882 9.72275 5.91954 9.7415C5.95148 9.76118 5.98343 9.78087 6.01634 9.80115C6.04991 9.82171 6.08349 9.84228 6.11808 9.86346C6.42662 10.0528 6.73357 10.2448 7.04032 10.4371C7.30825 10.6049 7.57723 10.7711 7.8462 10.9374C7.99097 11.0268 8.13567 11.1165 8.28038 11.2061C8.33849 11.242 8.39659 11.278 8.4547 11.314C8.90683 11.5939 9.35896 11.8737 9.8111 12.1536C9.83896 12.1709 9.86682 12.1881 9.89553 12.2059C9.9382 12.2323 9.98087 12.2587 10.0235 12.2852C10.0379 12.2725 10.0523 12.2599 10.0672 12.2468C10.7625 11.6424 11.5239 11.3621 12.4474 11.4219C12.9954 11.4824 13.4751 11.718 13.9083 12.0527C13.9586 12.0897 13.9586 12.0897 14.01 12.1274C14.4944 12.5491 14.849 13.2402 14.9044 13.8789C14.9555 14.7152 14.7675 15.4485 14.2096 16.0937C13.764 16.5906 13.1214 16.9579 12.448 17.0073C11.5626 17.0499 10.8468 16.848 10.1704 16.2618C9.66813 15.7903 9.34651 15.1251 9.31344 14.4364C9.30239 14.0116 9.33237 13.621 9.45909 13.2148C9.42612 13.1946 9.42612 13.1946 9.39249 13.174C8.99323 12.9289 8.59434 12.6833 8.19737 12.4346C7.92149 12.2617 7.64474 12.0903 7.3673 11.9199C7.05728 11.7296 6.74834 11.5376 6.44007 11.3444C6.1494 11.1624 5.85748 10.9826 5.56525 10.8031C5.53126 10.7823 5.49728 10.7614 5.46227 10.7399C5.41411 10.7106 5.41411 10.7106 5.36499 10.6806C5.30816 10.6453 5.25188 10.6091 5.19638 10.5717C5.17318 10.5562 5.14999 10.5406 5.12608 10.5246C5.10657 10.511 5.08705 10.4974 5.06694 10.4834C4.99035 10.4506 4.95379 10.4625 4.87706 10.4922C4.81312 10.542 4.75105 10.5942 4.69029 10.6478C4.44063 10.8612 4.18968 11.0129 3.88304 11.1313C3.85157 11.1436 3.85157 11.1436 3.81946 11.1562C3.1178 11.4135 2.3225 11.3372 1.64948 11.0365C0.925314 10.675 0.441672 10.0662 0.180894 9.30933C-0.030069 8.649 0.0527539 7.87699 0.353135 7.26111C0.716372 6.55827 1.3009 6.04535 2.0548 5.79745C2.76882 5.59028 3.58988 5.67359 4.24192 6.02844C4.44184 6.15095 4.62021 6.29372 4.79704 6.44737C4.87716 6.50789 4.91173 6.5317 5.00987 6.54102C5.09547 6.50441 5.09547 6.50441 5.18367 6.44556C5.21808 6.42405 5.25249 6.40254 5.28795 6.38038C5.32531 6.35646 5.36266 6.33253 5.40001 6.3086C5.43889 6.28411 5.47781 6.25966 5.51674 6.23525C5.59684 6.18495 5.67679 6.13442 5.75662 6.0837C5.89554 5.99545 6.03514 5.90829 6.17476 5.82117C6.23972 5.78063 6.30464 5.74005 6.36952 5.69941C6.68722 5.50047 7.00655 5.30421 7.32592 5.10796C7.8011 4.81597 8.27473 4.52152 8.74751 4.22567C8.98403 4.07772 9.22107 3.93067 9.45909 3.78516C9.44471 3.73906 9.44471 3.73906 9.43004 3.69203C9.2094 2.92087 9.27142 2.12229 9.6539 1.41749C10.0413 0.733541 10.6382 0.281351 11.3869 0.0560316C12.2456 -0.162172 13.1216 0.0348717 13.8274 0.549928ZM10.7208 1.70477C10.4371 2.08137 10.3177 2.52118 10.3556 2.98828C10.4425 3.46657 10.6461 3.88417 11.0397 4.18282C11.4761 4.47206 11.9522 4.61126 12.4763 4.50966C12.7881 4.42792 13.0373 4.29814 13.2775 4.08399C13.2979 4.06665 13.3183 4.04932 13.3393 4.03146C13.6732 3.72722 13.8456 3.29701 13.875 2.85262C13.8757 2.32408 13.6695 1.87805 13.3149 1.4931C12.9937 1.18854 12.5537 1.03055 12.1153 1.01685C11.5559 1.03433 11.0815 1.28205 10.7208 1.70477ZM1.52355 7.3711C1.21644 7.76745 1.09246 8.20231 1.12511 8.69922C1.20242 9.20631 1.45117 9.62302 1.85467 9.9385C2.2798 10.2235 2.75919 10.3202 3.26048 10.2245C3.77302 10.0962 4.13689 9.80403 4.41222 9.36328C4.63622 8.95034 4.69792 8.49008 4.57823 8.03516C4.49537 7.78131 4.38333 7.5755 4.213 7.3711C4.19382 7.34302 4.17465 7.31494 4.15489 7.28601C3.83288 6.93717 3.36487 6.75198 2.89732 6.72778C2.35028 6.74159 1.89425 6.97546 1.52355 7.3711ZM10.8194 13.0113C10.5148 13.3326 10.3568 13.7726 10.3431 14.2109C10.3581 14.6895 10.542 15.1197 10.8733 15.4644C11.2489 15.8156 11.6954 15.984 12.2079 15.9777C12.6882 15.9462 13.1214 15.728 13.4435 15.373C13.759 14.9588 13.9224 14.48 13.8564 13.9557C13.7881 13.6031 13.6487 13.3162 13.4103 13.0488C13.3929 13.0284 13.3756 13.008 13.3577 12.987C13.0535 12.6531 12.6233 12.4807 12.1789 12.4513C11.6504 12.4506 11.2043 12.6568 10.8194 13.0113Z" fill="url(#paint0_linear_20_86)"/>
<defs>
<linearGradient id="paint0_linear_20_86" x1="14.9124" y1="8.49047" x2="0.0634766" y2="8.49047" gradientUnits="userSpaceOnUse">
<stop stop-color="#C73967"/>
<stop offset="1" stop-color="#FF89AC"/>
</linearGradient>
</defs>
</svg>
